<svg width="16" height="16" viewBox="0 0 16 16" fill="none" xmlns="http://www.w3.org/2000/svg">
<path d="M7.66581 2.91646C7.66581 2.49652 7.49899 2.09378 7.20204 1.79683C6.9051 1.49989 6.50236 1.33307 6.08242 1.33307C5.66247 1.33307 5.25973 1.49989 4.96279 1.79683C4.66584 2.09378 4.49902 2.49652 4.49902 2.91646L4.49902 4.81653" stroke="#FFAD0D" stroke-linecap="round" stroke-linejoin="round"/>
<path d="M10.8318 4.18318L10.8318 2.91646C10.8318 2.49652 10.665 2.09378 10.3681 1.79683C10.0711 1.49989 9.66837 1.33307 9.24843 1.33307C8.82849 1.33307 8.42575 1.49989 8.1288 1.79683C7.83186 2.09378 7.66504 2.49652 7.66504 2.91646L7.66504 5.44989" stroke="#FFAD0D" stroke-linecap="round" stroke-linejoin="round"/>
<path d="M4.49979 7.34972L4.49979 4.8163L2.9164 4.8163C2.4971 4.81838 2.09557 4.98587 1.79907 5.28236C1.50258 5.57886 1.33509 5.98039 1.33301 6.39969L1.33301 7.6664C1.33301 9.34617 2.00029 10.9571 3.18807 12.1449C4.37584 13.3327 5.98681 14 7.66658 14C9.34634 14 10.9573 13.3327 12.1451 12.1449C13.3329 10.9571 14.0001 9.34617 14.0001 7.6664L14.0001 4.18294C14.0001 3.763 13.8333 3.36026 13.5364 3.06331C13.2394 2.76637 12.8367 2.59955 12.4168 2.59955C11.9968 2.59955 11.5941 2.76637 11.2971 3.06331C11.0002 3.36026 10.8334 3.763 10.8334 4.18294L10.8334 5.44965" stroke="#FFAD0D" stroke-linecap="round" stroke-linejoin="round"/>
</svg>
