<svg width="32" height="32" viewBox="0 0 32 32" fill="none" xmlns="http://www.w3.org/2000/svg">
<rect x="0.5" y="0.5" width="31" height="31" rx="7.5" fill="url(#paint0_linear_1_30723)"/>
<path d="M13.7012 14.6744V20.7088" stroke="#0066FF" stroke-width="1.5" stroke-linecap="round" stroke-linejoin="round"/>
<path d="M18.2988 14.6744V20.7088" stroke="#0066FF" stroke-width="1.5" stroke-linecap="round" stroke-linejoin="round"/>
<path d="M9.10352 9.93311H22.8962V20.8523C22.8962 23.3915 20.8378 25.4499 18.2987 25.4499H13.7011C11.1619 25.4499 9.10352 23.3915 9.10352 20.8523V9.93311Z" stroke="#0066FF" stroke-width="1.5"/>
<path d="M11.6904 8.29879C11.6904 7.0292 12.7196 6 13.9892 6H18.0121C19.2817 6 20.3109 7.0292 20.3109 8.29879V9.44818H11.6904V8.29879Z" stroke="#0066FF" stroke-width="1.5"/>
<path d="M7.37939 9.93311H24.6203" stroke="#0066FF" stroke-width="1.5" stroke-linecap="round" stroke-linejoin="round"/>
<rect x="0.5" y="0.5" width="31" height="31" rx="7.5" stroke="white"/>
<defs>
<linearGradient id="paint0_linear_1_30723" x1="5" y1="2.5" x2="29" y2="29.5" gradientUnits="userSpaceOnUse">
<stop stop-color="white" stop-opacity="0.6"/>
<stop offset="1" stop-color="white" stop-opacity="0.4"/>
</linearGradient>
</defs>
</svg>
